# Blender v2.76 (sub 0) OBJ File: 'USSArizona.blend'
# www.blender.org
o Cube
v 6.508186 -0.996828 0.712719
v 6.508186 0.996829 0.712719
v -6.582623 0.986001 0.712719
v -6.582622 -0.986002 0.712719
v 6.508187 -0.996828 -0.712719
v 6.508186 0.996829 -0.712719
v -6.582623 0.986001 -0.712719
v -6.582623 -0.986002 -0.712719
v 10.016045 0.000000 0.712719
v -7.726595 -0.000000 0.712719
v 10.016045 0.000001 -0.712719
v -7.726595 -0.000000 -0.712719
v -0.291647 -1.482089 0.712719
v -0.291648 1.482088 0.712719
v -0.291647 -1.482088 -0.712719
v -0.291648 1.482089 -0.712719
v -0.281097 0.000000 -0.712719
v -0.281097 -0.000000 0.712719
v -2.877084 -1.482089 0.712719
v -2.877085 1.482088 0.712719
v -2.877084 -1.482089 -0.712719
v -2.877085 1.482088 -0.712719
v 2.293789 -1.482089 0.712719
v 2.293789 1.482088 0.712719
v 2.293790 -1.482088 -0.712719
v 2.293789 1.482089 -0.712719
v 6.349276 -0.996828 0.237573
v 6.349276 -0.996828 -0.237573
v 6.349276 0.996829 0.237573
v 6.349276 0.996829 -0.237573
v -6.582623 0.986001 0.237573
v -6.582623 0.986001 -0.237573
v -6.582622 -0.986002 0.237573
v -6.582623 -0.986002 -0.237573
v -7.726595 -0.000000 -0.237573
v -7.726595 -0.000000 0.237573
v 9.857136 0.000001 -0.237573
v 9.857136 0.000000 0.237573
v -0.291647 -1.482089 0.237573
v -0.291647 -1.482089 -0.237573
v -0.291648 1.482088 -0.237573
v -0.291648 1.482088 0.237573
v 2.293789 1.482089 -0.237573
v 2.293789 1.482089 0.237573
v 2.293789 -1.482088 0.237573
v 2.293790 -1.482088 -0.237573
v -2.877084 -1.482089 0.237573
v -2.877084 -1.482089 -0.237573
v -2.877085 1.482088 -0.237573
v -2.877085 1.482088 0.237573
vn 0.000000 0.000000 1.000000
vn 0.000000 0.000000 -1.000000
vn 0.272200 0.957900 0.091000
vn -0.132700 0.991200 -0.000000
vn -0.652900 -0.757500 -0.000000
vn -0.132700 -0.991200 -0.000000
vn -0.652900 0.757500 -0.000000
vn 0.272200 -0.957900 0.091000
vn 0.000000 -1.000000 -0.000000
vn -0.000000 1.000000 0.000000
vn 0.116500 0.993000 0.019500
vn 0.116500 -0.993000 -0.019500
vn 0.116500 -0.993000 0.019500
vn 0.118800 -0.992900 -0.000000
vn 0.116500 0.993000 -0.019500
vn 0.118800 0.992900 0.000000
vn 0.272200 -0.957900 -0.091000
vn 0.273300 -0.961900 -0.000000
vn 0.272200 0.957900 -0.091000
vn 0.273300 0.961900 0.000000
s off
f 18//1 14//1 20//1 3//1 10//1
f 17//2 12//2 7//2 22//2 16//2
f 37//3 11//3 6//3 30//3
f 49//4 22//4 7//4 32//4
f 35//5 12//5 8//5 34//5
f 47//6 19//6 4//6 33//6
f 32//7 7//7 12//7 35//7
f 28//8 5//8 11//8 37//8
f 15//2 21//2 8//2 12//2 17//2
f 13//1 18//1 10//1 4//1 19//1
f 1//1 9//1 18//1 13//1 23//1
f 5//2 25//2 15//2 17//2 11//2
f 45//9 23//9 13//9 39//9
f 43//10 26//10 16//10 41//10
f 11//2 17//2 16//2 26//2 6//2
f 9//1 2//1 24//1 14//1 18//1
f 30//11 6//11 26//11 43//11
f 27//12 1//12 23//12 45//12
f 39//9 13//9 19//9 47//9
f 41//10 16//10 22//10 49//10
f 14//10 42//10 50//10 20//10
f 42//10 41//10 49//10 50//10
f 15//9 40//9 48//9 21//9
f 40//9 39//9 47//9 48//9
f 5//13 28//13 46//13 25//13
f 28//14 27//14 45//14 46//14
f 2//15 29//15 44//15 24//15
f 29//16 30//16 43//16 44//16
f 24//10 44//10 42//10 14//10
f 44//10 43//10 41//10 42//10
f 25//9 46//9 40//9 15//9
f 46//9 45//9 39//9 40//9
f 1//17 27//17 38//17 9//17
f 27//18 28//18 37//18 38//18
f 3//7 31//7 36//7 10//7
f 31//7 32//7 35//7 36//7
f 21//6 48//6 34//6 8//6
f 48//6 47//6 33//6 34//6
f 10//5 36//5 33//5 4//5
f 36//5 35//5 34//5 33//5
f 20//4 50//4 31//4 3//4
f 50//4 49//4 32//4 31//4
f 9//19 38//19 29//19 2//19
f 38//20 37//20 30//20 29//20
