# Blender v2.76 (sub 0) OBJ File: 'turret.blend'
# www.blender.org
o Cube
v 1.844562 0.011409 -1.000000
v 1.844562 0.011409 1.000000
v -1.000000 0.011409 1.000000
v -1.000000 0.011409 -1.000000
v 1.422287 0.809292 -0.450730
v 1.422287 0.809292 0.450730
v -0.577725 0.809292 0.450730
v -0.577725 0.809292 -0.450730
v 0.019613 0.014735 -1.501257
v 0.019612 0.014735 1.501256
v 0.186661 1.009264 -0.676661
v 0.186660 1.009264 0.676661
v 0.019612 0.014735 1.501256
v 1.844562 0.011409 1.000000
vn 0.003300 -1.000000 0.000000
vn -0.253100 0.967400 -0.000000
vn 0.883800 0.467800 0.000000
vn -0.351500 0.639600 0.683600
vn -0.883800 0.467800 -0.000000
vn -0.351500 0.639600 -0.683600
vn 0.221000 0.612900 -0.758600
vn 0.221000 0.612900 0.758600
vn 0.159800 0.987200 0.000000
vn -0.001800 -1.000000 -0.000000
s off
f 9//1 13//1 3//1 4//1
f 11//2 8//2 7//2 12//2
f 1//3 5//3 6//3 14//3
f 10//4 12//4 7//4 3//4
f 3//5 7//5 8//5 4//5
f 11//6 9//6 4//6 8//6
f 5//7 1//7 9//7 11//7
f 2//8 6//8 12//8 10//8
f 5//9 11//9 12//9 6//9
f 1//10 14//10 13//10 9//10
