# Blender v2.76 (sub 0) OBJ File: 'turret.blend'
# www.blender.org
o Cube
v 1.844562 0.011409 -1.000000
v 1.844562 0.011409 1.000000
v -1.000000 0.011409 1.000000
v -1.000000 0.011409 -1.000000
v 1.422287 0.809292 -0.450730
v 1.422287 0.809292 0.450730
v -0.577725 0.809292 0.450730
v -0.577725 0.809292 -0.450730
v 0.019613 0.014735 -1.501257
v 0.019612 0.014735 1.501256
v 0.186661 1.009264 -0.676661
v 0.186660 1.009264 0.676661
vn -0.253100 0.967400 -0.000000
vn -0.351500 0.639600 0.683600
vn -0.883800 0.467800 -0.000000
vn -0.351500 0.639600 -0.683600
vn 0.221000 0.612900 -0.758600
vn 0.221000 0.612900 0.758600
vn 0.159800 0.987200 0.000000
vn 0.003300 -1.000000 0.000000
vn 0.883800 0.467800 0.000000
vn -0.001800 -1.000000 -0.000000
s off
f 11//1 8//1 7//1 12//1
f 10//2 12//2 7//2 3//2
f 3//3 7//3 8//3 4//3
f 11//4 9//4 4//4 8//4
f 5//5 1//5 9//5 11//5
f 2//6 6//6 12//6 10//6
f 5//7 11//7 12//7 6//7
f 9//8 10//8 3//8 4//8
f 1//9 5//9 6//9 2//9
f 1//10 2//10 10//10 9//10
