# Blender v2.76 (sub 0) OBJ File: ''
# www.blender.org
o Cube.002
v -0.186661 1.009264 0.676661
v 0.577725 0.809292 0.450730
v 0.577725 0.809292 -0.450730
v -0.186660 1.009264 -0.676661
v -0.019612 0.014735 -1.501256
v 1.000000 0.011409 -1.000000
v 1.000000 0.011409 1.000000
v -0.019613 0.014735 1.501257
v -1.422287 0.809292 0.450730
v -1.844562 0.011409 1.000000
v -1.844562 0.011409 -1.000000
v -1.422287 0.809292 -0.450730
vn 0.253100 0.967400 0.000000
vn 0.351500 0.639600 -0.683600
vn 0.883800 0.467800 -0.000000
vn 0.351500 0.639600 0.683600
vn -0.221000 0.612900 0.758600
vn -0.221000 0.612900 -0.758600
vn -0.159800 0.987200 0.000000
vn -0.003300 -1.000000 0.000000
vn -0.883800 0.467800 0.000000
vn 0.001800 -1.000000 0.000000
s 1
f 1//1 2//1 3//1 4//1
f 5//2 4//2 3//2 6//2
f 6//3 3//3 2//3 7//3
f 1//4 8//4 7//4 2//4
f 9//5 10//5 8//5 1//5
f 11//6 12//6 4//6 5//6
f 9//7 1//7 4//7 12//7
f 8//8 5//8 6//8 7//8
f 10//9 9//9 12//9 11//9
f 10//10 11//10 5//10 8//10
