# Blender v2.76 (sub 0) OBJ File: ''
# www.blender.org
o Cube.001
v -2.095100 -0.012926 1.257277
v -2.095100 -0.012926 -1.257277
v -4.259698 -0.202083 -1.257277
v -4.259698 -0.202083 1.257277
v 1.345819 -0.018931 -1.257277
v 1.345819 -0.018931 1.257277
v 2.731157 -0.358366 1.257277
v 2.731157 -0.358366 -1.257277
v 2.486483 -0.986779 -1.257277
v 1.736351 -1.430174 -1.257277
v -3.722502 -1.420646 -1.257277
v -4.260964 -0.927448 -1.257277
v -4.260964 -0.927449 1.257277
v 2.486483 -0.986779 1.257277
v 1.736351 -1.430174 1.257277
v -3.722502 -1.420646 1.257277
vn -0.087100 0.996200 0.000000
vn 0.238000 0.971300 0.000000
vn -0.000000 0.000000 -1.000000
vn -1.000000 0.001700 0.000000
vn 0.001700 1.000000 0.000000
vn 0.508800 -0.860900 -0.000000
vn 0.931900 -0.362800 -0.000000
vn -0.001700 -1.000000 0.000000
vn -0.675400 -0.737400 -0.000000
vn -0.000000 -0.000000 1.000000
s 1
f 1//1 2//1 3//1 4//1
f 5//2 6//2 7//2 8//2
f 8//3 9//3 10//3 11//3 12//3 3//3 2//3 5//3
f 4//4 3//4 12//4 13//4
f 6//5 5//5 2//5 1//5
f 9//6 14//6 15//6 10//6
f 8//7 7//7 14//7 9//7
f 16//8 11//8 10//8 15//8
f 13//9 12//9 11//9 16//9
f 4//10 13//10 16//10 15//10 14//10 7//10 6//10 1//10
